<svg xmlns="http://www.w3.org/2000/svg" xmlns:xlink="http://www.w3.org/1999/xlink" version="1.1" id="Your_Icon" x="0px" y="0px" width="100px" height="100px" viewBox="0 0 100 100" enable-background="new 0 0 100 100" xml:space="preserve">
<rect x="22.501" y="10.285" fill="#000000" width="11.507" height="19.417"/>
<polygon fill="#000000" points="6.323,55.876 0.188,49.013 50.275,4.24 99.629,48.277 93.499,55.146 50.281,16.582 "/>
<g>
	<path fill="#000000" d="M50.279,24.209L13.073,56.427v40.038h74.404V56.427L50.279,24.209z M50.605,39.206   c4.374,0,7.921,3.576,7.921,7.979c0,4.403-2.838,10.874-7.921,10.874c-5.172,0-7.915-6.471-7.915-10.874   C42.691,42.782,46.23,39.206,50.605,39.206z M61.667,89.613H38.723l0.004-2.512h22.94V89.613z M69.83,85.163   c-0.553,0-1.076-0.104-1.56-0.296l-5.731-1.596l1.344-13.817h-26.41l0.773,13.707l-6.125,1.706   c-0.483,0.191-1.009,0.296-1.562,0.296c-2.335,0-4.23-1.894-4.23-4.229c0-0.875,0.268-1.689,0.723-2.365l10.955-15.021   c0,0,1.428-2.717,4.816-2.837h14.745c3.386,0.12,4.812,2.837,4.812,2.837l10.955,15.021c0.457,0.676,0.723,1.49,0.723,2.365   C74.06,83.27,72.166,85.163,69.83,85.163z"/>
</g>
</svg>