<svg xmlns="http://www.w3.org/2000/svg" xmlns:xlink="http://www.w3.org/1999/xlink" version="1.1" id="Layer_1" x="0px" y="0px" width="100px" height="100px" viewBox="0 0 100 100" enable-background="new 0 0 100 100" xml:space="preserve">
<path fill="#000000" d="M94.313,16.166H5.687C2.546,16.166,0,18.712,0,21.853v58.293c0,3.141,2.546,5.688,5.687,5.688h88.625  c3.141,0,5.688-2.547,5.688-5.688V21.853C100,18.712,97.453,16.166,94.313,16.166z M67.435,57.22L52.011,72.643  c-1.11,1.111-2.912,1.111-4.022,0L32.564,57.22c-0.555-0.556-0.833-1.284-0.833-2.012h8.073v-23.97c0-1.572,1.274-2.845,2.846-2.845  h14.7c1.57,0,2.844,1.273,2.844,2.845v23.97h8.074C68.269,55.936,67.99,56.664,67.435,57.22z"/>
<path fill="#000000" d="M82.767,2.31c8.612,0,11.785,11.38,11.785,11.38H45.448c0,0,3.173-11.38,11.784-11.38"/>
</svg>