<svg xmlns="http://www.w3.org/2000/svg" xmlns:xlink="http://www.w3.org/1999/xlink" version="1.0" x="0px" y="0px" width="100px" height="100px" viewBox="0 0 100 100" overflow="" enable-background="new 0 0 100 100" xml:space="preserve">
    <path d="M39.07,42.79l5.672-5.672l0.043,0.038v5.641l3.683-3.688v-8.55h-8.545l-3.688,3.692h5.574l-5.638,5.637 c-0.803,0.8-0.806,2.103,0,2.903C36.968,43.595,38.27,43.595,39.07,42.79z"/>
    <circle cx="82.951" cy="29.575" r="4.041"/>
    <path d="M85.945,65.445c4.645,0.895,9.029,1.951,13.101,3.157c-4.047-1.672-8.556-3.139-13.433-4.365l-0.526-1.911 c-0.104-0.364-0.274-0.693-0.489-0.978c-0.059-0.103-0.127-0.203-0.202-0.301l-3.207-7.777c0.237-0.413,0.426-0.864,0.56-1.345 l1.794-6.577l0.602,1.808c0.049,0.146,0.115,0.281,0.195,0.404c0.16,0.315,0.408,0.589,0.744,0.769l8.002,4.316 c0.859,0.464,1.933,0.142,2.394-0.718c0.465-0.859,0.146-1.93-0.717-2.394l-7.434-4.01l-2.702-8.111 c-0.03-0.09-0.07-0.173-0.11-0.254c-0.656-1.567-2.005-2.826-3.77-3.309c-1.691-0.461-3.418-0.112-4.755,0.81l-6.89,3.312 c-0.171,0.081-0.321,0.187-0.447,0.31c-0.301,0.227-0.53,0.548-0.638,0.939l-2.402,8.768c-0.257,0.943,0.298,1.915,1.237,2.173 c0.943,0.257,1.916-0.296,2.173-1.239l2.205-8.051l1.917-0.921l-2.445,8.961c-0.321,1.176-0.249,2.367,0.135,3.435 c0.074,0.465,0.257,0.917,0.567,1.316l0.004,0.005l-0.608,7.771c-4.563-0.606-9.329-1.021-14.238-1.222v-6.382h2.197 c1.17,0,2.117-0.948,2.117-2.119v-29.01c0-1.168-0.947-2.118-2.117-2.118H25.752c-1.17,0-2.119,0.949-2.119,2.118v29.01 c0,1.171,0.949,2.119,2.119,2.119h2.516v7.672c-10.521,1.434-19.98,3.889-27.741,7.096c4.148-1.229,8.628-2.307,13.373-3.211 l15.278,5.103l0.022-0.004c0.226,0.076,0.475,0.127,0.746,0.127c0.929,0,1.678-0.432,1.678-1.358v-6.246l22.484,7.481l0.023-0.004 c0.228,0.076,0.478,0.127,0.75,0.127c0.927,0,1.677-0.432,1.677-1.358V62.41v-0.128c4.64,0.147,9.167,0.447,13.549,0.882 l-5.358,10.569c-0.715,1.408-0.15,3.133,1.261,3.848c1.406,0.713,3.129,0.151,3.845-1.259l6.242-12.314 c0.025-0.047,0.043-0.097,0.066-0.144c1.195,0.158,2.379,0.327,3.546,0.507l3.533,12.785c0.421,1.525,1.995,2.42,3.521,1.999 c1.522-0.422,2.418-1.999,1.999-3.521L85.945,65.445z M77.056,60.932l1.337,1.723c-0.606-0.115-1.223-0.225-1.842-0.333 L77.056,60.932z M42.225,24.781c6.487,0,11.745,5.26,11.745,11.747c0,6.488-5.257,11.749-11.745,11.749 s-11.749-5.261-11.749-11.749C30.477,30.041,35.738,24.781,42.225,24.781z M31.626,53.835h21.58v6.28 c-1.138-0.021-2.274-0.035-3.42-0.035c-6.28,0-12.365,0.352-18.16,1.008V53.835z M18.607,64.565 c3.125-0.501,6.351-0.928,9.661-1.278v4.384L18.607,64.565z M53.206,67.659l-15.667-5.13c3.993-0.233,8.082-0.355,12.247-0.355 c1.146,0,2.283,0.009,3.42,0.028V67.659z"/>
    <circle cx="82.951" cy="29.575" r="4.041"/>
</svg>