<?xml version="1.0" encoding="utf-8"?>
<!-- Generator: Adobe Illustrator 14.0.0, SVG Export Plug-In . SVG Version: 6.00 Build 43363)  -->
<!DOCTYPE svg PUBLIC "-//W3C//DTD SVG 1.0//EN" "http://www.w3.org/TR/2001/REC-SVG-20010904/DTD/svg10.dtd">
<svg version="1.0" id="Layer_1" xmlns="http://www.w3.org/2000/svg" xmlns:xlink="http://www.w3.org/1999/xlink" x="0px" y="0px"
	 width="96.127px" height="100px" viewBox="0 0 96.127 100" enable-background="new 0 0 96.127 100" xml:space="preserve">
<path d="M46.21,49.882c-1.839,1.713-16.58,16.014-16.58,16.014l3.935,3.881c0,0,13.096-12.087,15.063-13.915
	c0.487-0.451,1.31-1.309,2.833-1.309h44.667v-6.185H49.909C48.557,48.369,47.276,48.898,46.21,49.882z"/>
<path d="M72.673,16.261c5.237,0,8.095-3.627,8.095-8.095c0-4.467-3.627-8.091-8.095-8.091c-4.471,0-8.095,3.624-8.095,8.091
	C64.578,12.634,68.202,16.261,72.673,16.261z"/>
<path d="M60.668,30.172h2.715l-3.978,14.291H85.94l-3.981-14.291h2.715l4.128,14.291h7.015L90.179,25.5
	c-0.744-2.619-4.057-7.258-9.791-7.258H64.953c-5.73,0-9.039,4.639-9.79,7.258l-5.63,18.963h7.014L60.668,30.172z"/>
<path d="M37.72,43.712l-3.441-6.415l-3.685-6.871c0,0-0.418-0.633-1.194-0.258c-0.698,0.336-0.383,1.123-0.383,1.123l2.364,4.511
	l1.47,2.811l-1.696-0.764c-3.004-1.354-4.661-1.933-5.326-2.23c-0.118-0.054-0.701-0.375-0.977-0.983
	c-0.787-1.76-4.149-10.27-4.904-12.151c-0.637-1.592-2.21-3.852-5.444-4.653c-3.681-0.911-7.39,1.411-8.267,5.104L1.216,44.102
	C0.769,45.808,0,50.426,0,52.372c0,1.946,0.032,41.343,0.032,41.343c0.025,3.488,2.543,6.299,6.027,6.285
	c3.48-0.011,5.863-2.847,5.852-6.332c0,0-0.003-22.514-0.007-35.024l5.354-22.605c0.626,1.529,1.399,3.392,1.653,3.839
	c0.604,1.055,1.198,1.781,2.415,2.354c0,0,7.011,2.901,9.722,4.139c1.634,0.626,3.409,0.072,4.442-1.23l0.375-0.776l0.129,0.247
	c0,0,0.798,1.406,1.979,1.47C38.31,45.007,37.72,43.712,37.72,43.712z"/>
<circle cx="18.789" cy="8.095" r="8.097"/>
<polygon points="30.532,60.925 46.307,46.243 44.257,44.043 28.48,58.727 "/>
</svg>
