<svg xmlns:dc="http://purl.org/dc/elements/1.1/" xmlns:cc="http://creativecommons.org/ns#" xmlns:rdf="http://www.w3.org/1999/02/22-rdf-syntax-ns#" xmlns:svg="http://www.w3.org/2000/svg" xmlns="http://www.w3.org/2000/svg" version="1.1" width="100" height="100" viewBox="0 0 100 99.999999" id="Layer_1" xml:space="preserve"><metadata id="metadata19"><rdf:RDF><cc:Work rdf:about=""><dc:format>image/svg+xml</dc:format><dc:type rdf:resource="http://purl.org/dc/dcmitype/StillImage"/><dc:title/></cc:Work></rdf:RDF></metadata><defs id="defs17"/>






<path d="m 32.177961,8.5105636 c 0,4.6842254 -3.813604,8.4839364 -8.50246,8.4839364 -4.695804,0 -8.502461,-3.798553 -8.502461,-8.4839364 0,-4.6888568 3.806657,-8.48740957 8.502461,-8.48740957 4.687699,0 8.50246,3.79855277 8.50246,8.48740957 z" id="path3"/><path d="m 22.850426,18.99421 c -7.914327,0 -9.967294,2.575109 -12.047757,6.837916 -2.0804627,4.259335 -6.7655567,28.835022 -6.7655567,28.835022 -0.2902866,1.0763 0.3597383,2.173431 1.4109985,2.460203 1.0673123,0.284528 2.166686,-0.349444 2.4602026,-1.410999 L 15.469818,31.54848 9.7172859,66.642546 l 5.5354561,0 1.700434,31.367583 c 0,1.085963 0.905065,1.98987 1.98987,1.98987 1.12301,0 2.026049,-0.903907 2.026049,-1.98987 l 1.700434,-31.367583 1.881331,0 1.845152,31.367583 c 0,1.085963 0.896961,1.98987 1.98987,1.98987 1.101013,0 1.98987,-0.903907 1.98987,-1.98987 l 1.700434,-31.367583 5.535456,0 -5.716353,-35.094066 6.58466,23.733719 c 0.238458,1.068769 1.31196,1.764963 2.387843,1.519537 1.070183,-0.246436 1.763346,-1.302843 1.519537,-2.387844 0,0 -3.729377,-24.322431 -5.824891,-28.581766 -2.08741,-4.262807 -4.146455,-6.837916 -12.083936,-6.837916 l -1.628076,0 z m 0.868307,1.700435 c 1.576184,0.005 3.143435,0.146665 4.703329,0.434153 l -4.739508,9.081042 -4.739508,-9.081042 c 1.594195,-0.307385 3.199503,-0.439127 4.775687,-0.434153 z" id="path5"/><path d="m 39.963306,54.160636 a 0.86839363,0.86839363 0 0 0 -0.180897,0.03618 0.86839363,0.86839363 0 0 0 -0.68741,0.868307 l 0,2.568741 -0.759768,0 c -1.517484,0 -2.749638,2.519756 -2.749638,5.680174 l 0,15.08683 c 0,3.160419 1.232154,5.716353 2.749638,5.716353 l 4.486252,0 c 1.517483,0 2.993257,-2.565337 2.749638,-5.716353 L 44.377199,63.314037 C 44.13358,60.163022 43.181223,57.633863 41.66374,57.633863 l -0.832127,0 0,-2.568741 a 0.86839363,0.86839363 0 0 0 -0.868307,-0.904486 z" id="path3875" style="fill:#000000;stroke:none"/><path d="m 77.759437,-8.217424e-7 c -4.696961,0 -8.510565,3.7950796217424 -8.510565,8.4874095217424 0,4.6923303 3.813604,8.4908823 8.510565,8.4908823 4.680752,0 8.479305,-3.798552 8.479305,-8.4908823 0,-4.6923299 -3.798553,-8.4874095217424 -8.479305,-8.4874095217424 z" id="path7"/><path d="m 76.922785,18.958031 c -7.922431,0 -11.116932,2.578582 -13.205499,6.837916 -2.073517,4.25123 -1.013025,29.956585 -1.013025,29.956585 -0.121039,1.105451 0.673144,2.076948 1.772793,2.206946 1.099977,0.13111 2.101546,-0.659933 2.206947,-1.736614 L 68.384435,31.5123 68.927127,49.96382 67.299051,96.418233 c -0.113458,1.839653 1.251809,3.425181 3.075254,3.545587 0.0903,0.01505 0.184949,0 0.253256,0 1.741244,0 3.228075,-1.310854 3.364689,-3.075254 l 3.726483,-38.241678 3.835022,38.241678 c 0.106512,1.763242 1.566136,3.075254 3.29233,3.075254 0.0822,0 0.171056,0.01505 0.253256,0 1.847757,-0.120406 3.187554,-1.705934 3.075253,-3.545587 L 86.546519,49.96382 87.12539,31.5123 92.081975,55.824891 c 0.230754,1.066048 1.277253,1.756923 2.351664,1.519536 1.090102,-0.233165 1.782062,-1.299064 1.555716,-2.387843 0,0 -2.109406,-24.909407 -4.196816,-29.160637 C 89.703972,21.53777 86.473292,18.958031 78.55086,18.958031 l -1.628075,0 z m 0.832127,1.95369 c 1.851592,0 2.6411,0.325615 2.6411,0.325615 l -1.808972,2.424023 c 0,0 0.756885,0.489917 0.795948,1.049205 0.03906,0.559288 -1.013025,1.772793 -1.013025,1.772793 l 2.026049,20.694645 -2.6411,3.581766 -2.677279,-3.581766 2.062229,-20.694645 c 0,0 -1.052087,-1.213505 -1.013025,-1.772793 0.03906,-0.559288 0.795948,-1.049205 0.795948,-1.049205 l -1.845152,-2.424023 c 0,0 0.825688,-0.325615 2.677279,-0.325615 z" id="path9"/><path d="m 65.128284,55.643993 a 0.86839363,0.86839363 0 0 0 -0.723589,0.759769 l -0.470332,2.60492 -1.845152,0.03618 c -1.517443,0.01111 -2.456773,2.563636 -2.67728,5.716353 l -1.085383,15.08683 c -0.220511,3.152717 1.268375,5.691301 2.785817,5.680174 l 4.486252,-0.03618 c 1.517443,-0.01112 2.736633,-2.55602 2.713459,-5.716354 L 68.167358,64.688855 C 68.145628,61.726043 67.057657,59.3258 65.670976,59.044861 l 0.434154,-2.351665 a 0.86839363,0.86839363 0 0 0 -0.868307,-1.049204 0.86839363,0.86839363 0 0 0 -0.108539,0 z" id="rect3037" style="fill:#000000;stroke:none"/></svg>