<?xml version="1.0" encoding="UTF-8" standalone="no"?>
<svg
   xmlns:dc="http://purl.org/dc/elements/1.1/"
   xmlns:cc="http://creativecommons.org/ns#"
   xmlns:rdf="http://www.w3.org/1999/02/22-rdf-syntax-ns#"
   xmlns:svg="http://www.w3.org/2000/svg"
   xmlns="http://www.w3.org/2000/svg"
   xmlns:sodipodi="http://sodipodi.sourceforge.net/DTD/sodipodi-0.dtd"
   xmlns:inkscape="http://www.inkscape.org/namespaces/inkscape"
   version="1.1"
   x="0px"
   y="0px"
   width="100px"
   height="100px"
   viewBox="0 0 100 100"
   enable-background="new 0 0 100 100"
   xml:space="preserve"
   id="svg2"
   inkscape:version="0.48.4 r9939"
   sodipodi:docname="noun_project_8428.svg"><metadata
     id="metadata15"><rdf:RDF><cc:Work
         rdf:about=""><dc:format>image/svg+xml</dc:format><dc:type
           rdf:resource="http://purl.org/dc/dcmitype/StillImage" /></cc:Work></rdf:RDF></metadata><defs
     id="defs13" /><sodipodi:namedview
     pagecolor="#ffffff"
     bordercolor="#666666"
     borderopacity="1"
     objecttolerance="10"
     gridtolerance="10"
     guidetolerance="10"
     inkscape:pageopacity="0"
     inkscape:pageshadow="2"
     inkscape:window-width="1366"
     inkscape:window-height="686"
     id="namedview11"
     showgrid="false"
     inkscape:zoom="3.337544"
     inkscape:cx="46.311857"
     inkscape:cy="44.802033"
     inkscape:window-x="0"
     inkscape:window-y="31"
     inkscape:window-maximized="1"
     inkscape:current-layer="Page_1_2_" /><g
     id="Captions" /><g
     id="Your_Icon"
     transform="translate(-4.1398202e-6,0)"><g
       id="g6"><g
         id="Page_1_2_"><path
           id="branch"
           d="m 97.178,70.129 -21.17,1.441 -20.951,5.301 -22.04,5.576 c 0,0 -15.696,9.289 -19.192,12.115 -1.885,5.441 3.718,3.225 3.718,3.225 L 35.787,86.379 c 0,0 30.425,-7.552 36.316,-8.604 10.295,-3.618 22.93,-3.992 25.543,-4.119 3.349,-2.638 -0.468,-3.527 -0.468,-3.527 z"
           inkscape:connector-curvature="0"
           style="fill:#313131;fill-opacity:1" /><path
           id="Bird"
           d="m 46.982,62.955 2.188112,6.888745 1.242365,1.405053 L 51.914,74.879 c 0.215,0.512 0.116,1.291 -0.214,1.721 0,0 -1.018,1.395 -2.323,2.77 -1.305,1.375 0.546,2.508 0.546,2.508 0,0 1.614,1.51 2.013,0.936 0.399,-0.573 -0.735,-1.958 -0.685,-2.847 0.053,-0.89 1.053,-1.669 1.053,-1.669 l 1.875,-0.994 c 0,0 1.775,0.26 2.746,-0.764 -2.041,-0.605 -3.441,-2.359 -3.441,-2.359 0,0 -0.823034,-1.76745 -1.709939,-3.660669 -0.242053,-0.516696 0.03547,-1.117665 -0.200662,-1.619724 C 50.377367,66.357667 48.877136,64.357715 48.76,63.329 c 6.83,0.889 4.829,0.598 7.55,0.71 1.924,1.190987 2.875054,2.898651 4.451373,4.000278 0.294468,0.205791 1.405961,-0.115606 1.686237,0.084 C 66.531137,71.031483 69.074,73.232 69.074,73.232 l -1.035,4.596 c 0,0 0.086,1.421 1.219,1.556 1.21,-0.362 2.692,-1.556 2.692,-1.556 0,0 0.642,-0.136 -1.174,0 0,-3.447 1.499,-4.897 1.499,-4.897 l 1.703,-0.44 C 75.582,72.076 75.54,71.74 73.886,71.74 l -3.881,0 L 63.653861,67.514687 63.19215,66.409563 58.431,64.04 c 0,0 24.862406,-5.512509 25.139406,-31.262509 0.53965,-3.991012 -0.393852,-5.615642 0.544903,-7.876968 0.447103,-1.077006 0.448651,-3.942571 0.971409,-4.781499 1.724275,-2.767133 3.684187,-4.060493 6.007146,-6.565024 -2.146,0.57 -0.933864,0.135 -7.824864,2.059 1.239,-1.796 5.639695,-7.3481695 5.639695,-7.3481695 0,0 -4.128685,-0.026686 -8.621935,2.2837655 C 74.255,9.4296337 65.774251,7.9619925 60.653619,23.96001 c -0.45247,3.158396 -4.215638,9.171314 -5.995724,11.418873 -7.21713,12.983052 -40.981824,36.98671 -37.477907,38.829552 1.680547,0.636982 4.605801,-2.531513 8.171291,-3.940349 C 30.252292,68.331543 36.416856,67.933906 46.982,62.955 z"
           inkscape:connector-curvature="0"
           style="fill:#11171f;fill-opacity:1"
           sodipodi:nodetypes="cccccscccccccssccsscccccccscccccsscccccccsc" /></g></g></g></svg>