<svg xmlns="http://www.w3.org/2000/svg" xmlns:xlink="http://www.w3.org/1999/xlink" version="1.1" id="Layer_1" x="0px" y="0px" width="100px" height="100px" viewBox="0 0 100 100" style="enable-background:new 0 0 100 100;" xml:space="preserve">
<g>
	<path d="M84.537,17.498c-1.885,0-3.697,1.58-4.395,2.316c-4.295,3.658-8.869,7.154-15.475,7.154   c-4.691,0-10.201-1.768-16.377-5.256c-3.674-2.076-6.91-3.441-9.824-4.283c-0.461-0.215-0.963-0.344-1.494-0.391   c-10.672-2.504-16.635,2.574-22.426,7.555c-0.018,0.014-0.029,0.031-0.045,0.047c-1.68,1.35-3.264,2.238-3.264,4.285v46.592   c0,4.096,4.848,4.76,4.986,4.748c1.674,0.086,2.934-0.133,4.15-1.182c5.064-4.354,8.459-7.248,15.047-5.559   c0.131,0.035,0.256,0.07,0.389,0.094c2.26,0.631,4.889,1.785,8.08,3.59c7.641,4.314,14.438,6.412,20.777,6.412   c10.098,0,16.582-5.268,21.787-9.729c1.369-0.766,2.307-2.211,2.307-3.891V21.473C88.762,19.002,87.006,17.498,84.537,17.498z    M79.816,43.945c-4.146,3.508-8.602,6.775-14.908,6.859V35.896c6.135-0.053,10.922-2.055,14.908-4.621V43.945z M64.908,59.75   c6.135-0.053,10.922-2.057,14.908-4.621v12.67c-4.146,3.508-8.602,6.775-14.908,6.859V59.75z M55.963,34.654v14.434   c-2.43-0.863-4.975-1.998-7.672-3.521c-2.623-1.482-5.012-2.582-7.236-3.416V28.008c0.9,0.443,1.832,0.928,2.836,1.494   C48.16,31.914,52.154,33.605,55.963,34.654z M32.111,25.342v14.893c-4.846-0.115-8.607,1.486-11.928,3.736V31.512   c0.061-0.047,0.131-0.082,0.191-0.135C24.516,27.82,27.545,25.246,32.111,25.342z M20.184,67.824V55.365   c0.061-0.047,0.131-0.082,0.191-0.135c4.141-3.559,7.17-6.135,11.736-6.039v14.896C27.266,63.973,23.504,65.574,20.184,67.824z    M41.055,66.004V51.861c0.9,0.443,1.832,0.926,2.836,1.494c4.27,2.412,8.264,4.104,12.072,5.15v14.434   c-2.43-0.861-4.975-1.996-7.672-3.52C45.668,67.938,43.279,66.838,41.055,66.004z"/>
</g>
</svg>