<svg xmlns="http://www.w3.org/2000/svg" xmlns:xlink="http://www.w3.org/1999/xlink" version="1.1" x="0px" y="0px" width="100px" height="100px" viewBox="-346 256 100 100" enable-background="new -346 256 100 100" xml:space="preserve">
<g id="Layer_1">
</g>
<g id="Layer_2">
	<path d="M-246.315,332.031l-6.606,3.964c-5.803-3.229-11.54,1.121-11.54,1.121s-7.595-10.709-20.444-10.515   c-5.702,0.087-10.333,1.319-14.076,3.104l-3.117-2.66c2.818-0.639,16.002-5.594,16.002-5.594c0.602-0.218,0.912-0.882,0.694-1.483   c-0.219-0.601-0.883-0.911-1.483-0.694l-2.921,1.059c2.29-2.6,4.431-5.608,4.785-6.11c0.368-0.523,0.242-1.245-0.28-1.614   c-0.523-0.367-1.246-0.242-1.614,0.28c-0.558,0.792-1.538,2.122-2.655,3.53c0.22-2.126,0.414-5.048,0.422-5.182   c0.042-0.639-0.44-1.189-1.079-1.231c-0.66-0.047-1.189,0.441-1.231,1.079c-0.003,0.035-0.233,3.522-0.469,5.599   c-0.161,1.406-1.248,3.452-1.791,4.359c-0.384,0.344-0.744,0.631-1.061,0.824c-2.724,1.673-9.951,3.49-10.024,3.508   c-0.42,0.105-0.748,0.437-0.847,0.859c-0.099,0.422,0.046,0.864,0.375,1.146l4.094,3.494c-0.699,0.411-1.358,0.841-1.986,1.284   l-6.236-5.178c2.33-2.074,7.949-7.157,9.748-9.504c2.272-2.97,5.894-12.448,6.046-12.85c0.228-0.598-0.072-1.267-0.67-1.495   c-0.599-0.226-1.267,0.073-1.495,0.67c-0.015,0.038-0.609,1.591-1.444,3.602c-0.043-2.92-0.246-6.391-0.258-6.603   c-0.038-0.638-0.571-1.121-1.225-1.088c-0.638,0.038-1.125,0.586-1.088,1.225c0.117,1.983,0.372,7.368,0.21,9.324   c-0.487-2.107-1.704-4.823-1.762-4.953c-0.264-0.584-0.95-0.843-1.532-0.581c-0.583,0.263-0.843,0.948-0.581,1.532   c0.416,0.923,1.537,3.646,1.734,5.142c0.197,1.491,0.069,3.998,0.012,4.924c-2.373,2.906-10.158,9.739-10.239,9.811   c-0.255,0.224-0.399,0.548-0.395,0.887c0.005,0.339,0.158,0.659,0.418,0.875l6.872,5.706c-3.096,2.597-5.152,5.432-6.428,7.614   h-29.273c0,0,0.573,1.139,2.363,2.224c1.997,1.212,4.726,2.032,4.726,2.032H-346c0,0,2.805,2.652,7.086,4.002   c4.852,1.528,11.234,2.246,17.51,2.531L-325.98,356h72.183c0,0,10.786-6.702,5.563-15.337L-246.315,332.031z"/>
</g>
</svg>