<?xml version="1.0" encoding="utf-8"?>
<!-- Generator: Adobe Illustrator 16.0.0, SVG Export Plug-In . SVG Version: 6.00 Build 0)  -->
<!DOCTYPE svg PUBLIC "-//W3C//DTD SVG 1.1//EN" "http://www.w3.org/Graphics/SVG/1.1/DTD/svg11.dtd">
<svg version="1.1" id="Layer_1" xmlns="http://www.w3.org/2000/svg" xmlns:xlink="http://www.w3.org/1999/xlink" x="0px" y="0px"
	 width="65.394px" height="100px" viewBox="0 0 65.394 100" enable-background="new 0 0 65.394 100" xml:space="preserve">
<path fill="#010101" d="M32.695,85.224c-4.079,0-7.387,3.308-7.387,7.39c0,4.079,3.308,7.386,7.387,7.386
	c4.086,0,7.391-3.307,7.391-7.386C40.086,88.531,36.781,85.224,32.695,85.224z"/>
<path fill="#010101" d="M5.928,68.328c-0.433,0.433-0.681,1.033-0.681,1.647v10.219c0,1.283,1.037,2.327,2.326,2.327
	c1.288,0,2.33-1.044,2.33-2.327H9.899v-7.898h20.574v8.224c0,1.281,1.046,2.32,2.332,2.32c1.28,0,2.325-1.04,2.325-2.32v-8.224H55.7
	v8.221c0,1.284,1.041,2.323,2.33,2.323c1.278,0,2.321-1.04,2.321-2.323V69.976c0-0.614-0.253-1.211-0.682-1.644
	c-0.432-0.437-1.033-0.683-1.64-0.683H35.129V60.17c0-1.288-1.045-2.323-2.325-2.323c-1.286,0-2.332,1.037-2.332,2.323v7.479h-22.9
	C6.959,67.649,6.36,67.896,5.928,68.328z"/>
<circle fill="#010101" cx="7.492" cy="92.612" r="7.388"/>
<path fill="#010101" d="M57.908,85.224c-4.086,0-7.392,3.308-7.392,7.39c0,4.079,3.306,7.386,7.392,7.386
	c4.08,0,7.386-3.307,7.386-7.386C65.296,88.531,61.988,85.224,57.908,85.224z"/>
<path fill="#010101" d="M61.03,0H4.362C1.953,0,0,1.956,0,4.363v36.689c0,2.411,1.952,4.36,4.362,4.365H61.03
	c2.41-0.004,4.363-1.954,4.363-4.365V4.363C65.392,1.949,63.44,0,61.03,0z M60.897,40.917H4.495V4.496h56.402V40.917z"/>
<path fill="#010101" d="M47.404,53.547c0-2.364-1.921-4.285-4.289-4.285H22.281c-2.37,0-4.292,1.919-4.292,4.285
	c0,0.318,0.04,0.625,0.105,0.923h29.206C47.362,54.172,47.404,53.864,47.404,53.547z"/>
</svg>
